<svg width="24" height="24" viewBox="0 0 24 24" fill="none" xmlns="http://www.w3.org/2000/svg">
<g id="&#230;&#136;&#145;&#231;&#154;&#132;&#230;&#142;&#168;&#232;&#141;&#144;&#231;&#160;&#129;">
<g id="Group 1321315106">
<path id="Vector" d="M18.6517 4.92383H14.7207V8.85487H18.6517V4.92383Z" stroke="#606266" stroke-linecap="round" stroke-linejoin="round"/>
<path id="Vector_2" d="M8.43104 15.1445H4.5V19.0756H8.43104V15.1445Z" stroke="#606266" stroke-linecap="round" stroke-linejoin="round"/>
<path id="Vector_3" d="M8.43104 4.92383H4.5V8.85487H8.43104V4.92383Z" stroke="#606266" stroke-linecap="round" stroke-linejoin="round"/>
<path id="Vector_4" d="M5.28619 11.9995H13.9345" stroke="#606266" stroke-linecap="round" stroke-linejoin="round"/>
<path id="Vector_5" d="M17.0793 11.9995H17.8656" stroke="#606266" stroke-linecap="round" stroke-linejoin="round"/>
<path id="Vector_6" d="M11.5759 17.1099V17.8961" stroke="#606266" stroke-linecap="round" stroke-linejoin="round"/>
<path id="Vector_7" d="M11.5759 9.24805V14.7515" stroke="#606266" stroke-linecap="round" stroke-linejoin="round"/>
<path id="Vector_8" d="M11.5759 5.70996V6.49617" stroke="#606266" stroke-linecap="round" stroke-linejoin="round"/>
<g id="Group 1321315105">
<path id="Vector_9" d="M17.5386 14.3188C18.2556 14.3188 18.8373 14.8998 18.8375 15.6167C18.8375 16.3338 18.2557 16.9155 17.5386 16.9155C16.8217 16.9153 16.2408 16.3337 16.2408 15.6167C16.241 14.8999 16.8218 14.319 17.5386 14.3188Z" stroke="#D02135" stroke-width="0.86558" stroke-linecap="round" stroke-linejoin="round"/>
<path id="Vector_10" d="M19.8247 19.5776C19.8247 18.3682 18.8443 17.3877 17.6348 17.3877C16.4253 17.3877 15.4449 18.3682 15.4449 19.5776" stroke="#D02135" stroke-width="0.86558" stroke-linecap="round" stroke-linejoin="round"/>
</g>
</g>
</g>
</svg>
