<svg width="24" height="24" viewBox="0 0 24 24" fill="none" xmlns="http://www.w3.org/2000/svg">
<g id="&#228;&#184;&#147;&#229;&#177;&#158;&#229;&#174;&#162;&#230;&#156;&#141;">
<g id="Group 427318832">
<path id="Subtract" fill-rule="evenodd" clip-rule="evenodd" d="M12.1056 4.5C13.4548 4.49998 14.7762 4.90471 15.9155 5.66695C17.0547 6.42914 17.9653 7.51707 18.5403 8.80427L18.5869 8.90907L18.6914 8.944C19.3487 9.15989 19.8247 9.80632 19.8247 10.5694V13.1893C19.8249 13.5323 19.7266 13.8678 19.5432 14.151C19.3597 14.4342 19.099 14.652 18.7959 14.7765L18.6986 14.8169L18.6583 14.9195C18.114 16.2777 17.2017 17.4363 16.0366 18.2512C14.8713 19.066 13.5037 19.5 12.1056 19.5C12.0068 19.5 11.9115 19.46 11.8416 19.3865C11.7718 19.3128 11.733 19.2122 11.733 19.1081C11.733 19.004 11.7719 18.9034 11.8416 18.8297C11.9115 18.7562 12.0068 18.7151 12.1056 18.7151L12.3219 18.7108C13.405 18.6723 14.4625 18.3434 15.3928 17.7523C16.3851 17.1217 17.1961 16.2172 17.7371 15.1368L17.8655 14.8792L17.6098 14.7711C17.3105 14.6446 17.0536 14.4261 16.8729 14.1445C16.6922 13.8627 16.5954 13.5295 16.5955 13.1893V10.5694L16.5996 10.4483C16.6185 10.1681 16.7029 9.8963 16.846 9.65792C17.0097 9.38527 17.2441 9.16701 17.5208 9.02915L17.764 8.90798L17.6305 8.66127C17.0733 7.63527 16.2686 6.78263 15.2986 6.18983C14.3892 5.63412 13.364 5.32537 12.3157 5.28924L12.1056 5.28597C10.9668 5.28562 9.84864 5.6077 8.86802 6.21822C7.88752 6.82873 7.07977 7.70576 6.5299 8.75733L6.41502 8.97893L6.61995 9.10774C7.0906 9.40564 7.40553 9.94932 7.40553 10.5694V13.1893C7.40542 13.6408 7.23517 14.0741 6.93253 14.3934C6.62974 14.7127 6.21808 14.8923 5.78986 14.8923C5.36181 14.8921 4.95092 14.7126 4.64824 14.3934C4.34555 14.0741 4.17534 13.6408 4.17523 13.1893V10.5694C4.17542 10.1684 4.31118 9.78023 4.55612 9.47344C4.801 9.16684 5.14004 8.96119 5.51455 8.89269L5.59218 8.8785L5.67912 8.78681L5.69775 8.74642C6.27864 7.47438 7.18802 6.40065 8.32153 5.64948C9.4551 4.89835 10.7668 4.49996 12.1056 4.5ZM5.78986 9.65246C5.55951 9.65259 5.33902 9.74924 5.1761 9.921C5.01306 10.093 4.92148 10.3262 4.92148 10.5694V13.1893C4.92159 13.4323 5.01316 13.6648 5.1761 13.8367C5.33903 14.0085 5.55945 14.1051 5.78986 14.1052C6.02044 14.1052 6.24162 14.0086 6.40467 13.8367C6.56756 13.6648 6.65917 13.4323 6.65928 13.1893V10.5694C6.65928 10.3262 6.56771 10.093 6.40467 9.921C6.24163 9.74909 6.02041 9.65246 5.78986 9.65246ZM18.2101 9.65246C17.9796 9.65247 17.7583 9.74905 17.5953 9.921C17.4324 10.0929 17.3407 10.3263 17.3407 10.5694V13.1893C17.3408 13.4322 17.4326 13.6648 17.5953 13.8367C17.7583 14.0086 17.9796 14.1052 18.2101 14.1052C18.4407 14.1052 18.6619 14.0086 18.8249 13.8367C18.9877 13.6648 19.0794 13.4322 19.0795 13.1893V10.5694C19.0795 10.3263 18.9879 10.0929 18.8249 9.921C18.6619 9.74904 18.4407 9.65246 18.2101 9.65246Z" fill="#606266" stroke="#606266" stroke-width="0.3"/>
<path id="Subtract_2" d="M13.7588 14.105C13.863 14.105 13.9635 14.147 14.0372 14.2207C14.1108 14.2944 14.1518 14.3949 14.1518 14.4991C14.1517 14.7798 14.0966 15.0584 13.9891 15.3178C13.8816 15.5771 13.7237 15.8124 13.5252 16.011C13.3265 16.2096 13.0905 16.3674 12.8309 16.4749C12.5714 16.5824 12.2931 16.6386 12.0122 16.6386C11.7314 16.6386 11.453 16.5824 11.1935 16.4749C10.9341 16.3674 10.6978 16.2095 10.4992 16.011C10.3008 15.8124 10.1427 15.577 10.0353 15.3178C9.92784 15.0584 9.87268 14.7798 9.87262 14.4991C9.87262 14.3948 9.91464 14.2944 9.98833 14.2207C10.0619 14.1472 10.1616 14.1051 10.2656 14.105C10.3698 14.105 10.4703 14.147 10.544 14.2207C10.6176 14.2944 10.6586 14.3949 10.6586 14.4991C10.6587 14.8579 10.8022 15.2016 11.0559 15.4553C11.3097 15.709 11.6534 15.8515 12.0122 15.8516C12.3712 15.8516 12.7157 15.7092 12.9696 15.4553C13.2232 15.2016 13.3657 14.8578 13.3658 14.4991C13.3658 14.3948 13.4078 14.2944 13.4815 14.2207C13.5552 14.1472 13.6547 14.105 13.7588 14.105Z" fill="#D02135" stroke="#D02135" stroke-width="0.1"/>
</g>
</g>
</svg>
