<svg width="24" height="24" viewBox="0 0 24 24" fill="none" xmlns="http://www.w3.org/2000/svg">
<g id="&#228;&#184;&#170;&#228;&#186;&#186;&#228;&#191;&#161;&#230;&#129;&#175;">
<path id="Vector" d="M16.6558 9.3486C16.6146 6.4902 14.286 4.19482 11.4273 4.19482C8.56864 4.19482 6.2397 6.49046 6.19879 9.34886C6.18699 10.2761 6.42995 11.1888 6.9012 11.9875C7.37245 12.7862 8.05389 13.4402 8.87126 13.8782C7.76117 14.31 6.77889 15.0166 6.01649 15.9317C5.25409 16.8469 4.73653 17.9406 4.51233 19.1104C4.49659 19.1865 4.49614 19.265 4.51101 19.3413C4.52587 19.4175 4.55576 19.4901 4.59893 19.5547C4.6421 19.6193 4.69769 19.6747 4.76246 19.7177C4.82724 19.7606 4.8999 19.7902 4.97623 19.8048H5.09188C5.22787 19.8101 5.36122 19.7663 5.46751 19.6812C5.5738 19.5962 5.64591 19.4758 5.67064 19.342C5.93048 18.0157 6.63774 16.8189 7.67416 15.9515C8.71058 15.0842 10.0133 14.5989 11.3646 14.5768H11.4803C14.3376 14.5252 16.6333 12.2059 16.6558 9.3486ZM11.4868 13.4133H11.3111C10.2587 13.3669 9.26372 12.9203 8.52957 12.1648C7.79541 11.4093 7.37752 10.4019 7.36129 9.3486C7.36091 8.54666 7.59762 7.76251 8.04165 7.09473C8.48569 6.42695 9.11723 5.90534 9.85688 5.59548C10.5965 5.28562 11.4113 5.20134 12.1987 5.35324C12.9861 5.50514 13.7111 5.88643 14.2824 6.44918C14.8537 7.01194 15.2459 7.73103 15.4097 8.51606C15.5735 9.3011 15.5015 10.117 15.2029 10.8613C14.9042 11.6055 14.3922 12.2449 13.7312 12.699C13.0702 13.153 12.2897 13.4016 11.4879 13.4133H11.4868Z" fill="#606266"/>
<path id="Vector_2" d="M15.4362 14.5758V14.5779C15.4317 14.6551 15.4435 14.7323 15.471 14.8046C15.4985 14.8769 15.5409 14.9425 15.5956 14.9972C15.6502 15.0518 15.7158 15.0943 15.788 15.1218C15.8603 15.1493 15.9375 15.1612 16.0147 15.1567H18.9195C19.0733 15.1567 19.2208 15.0956 19.3295 14.9869C19.4382 14.8781 19.4993 14.7307 19.4993 14.5769C19.4993 14.4231 19.4382 14.2756 19.3295 14.1669C19.2208 14.0582 19.0733 13.9971 18.9195 13.9971H16.0147C15.8614 13.9977 15.7146 14.0589 15.6062 14.1673C15.4979 14.2757 15.4368 14.4225 15.4362 14.5758ZM14.2734 17.4224H18.9221C19.0742 17.4192 19.2189 17.3565 19.3252 17.2479C19.4316 17.1392 19.4912 16.9932 19.4912 16.8412C19.4912 16.6891 19.4316 16.5431 19.3252 16.4345C19.2189 16.3258 19.0742 16.2632 18.9221 16.2599H14.2734C14.1214 16.2632 13.9767 16.3258 13.8703 16.4345C13.764 16.5431 13.7044 16.6891 13.7044 16.8412C13.7044 16.9932 13.764 17.1392 13.8703 17.2479C13.9767 17.3565 14.1214 17.4192 14.2734 17.4224ZM18.9221 18.5855H14.333C14.2557 18.5838 14.1788 18.5976 14.1069 18.6261C14.035 18.6545 13.9695 18.697 13.9143 18.7511C13.859 18.8052 13.8151 18.8698 13.7852 18.9411C13.7552 19.0123 13.7398 19.0889 13.7398 19.1662C13.7398 19.2435 13.7552 19.32 13.7852 19.3913C13.8151 19.4626 13.859 19.5272 13.9143 19.5813C13.9695 19.6353 14.035 19.6779 14.1069 19.7063C14.1788 19.7347 14.2557 19.7486 14.333 19.7469H18.9221C18.9992 19.7512 19.0762 19.7391 19.1482 19.7115C19.2203 19.684 19.2857 19.6415 19.3401 19.5868C19.3946 19.5322 19.4369 19.4667 19.4643 19.3946C19.4917 19.3225 19.5035 19.2454 19.4991 19.1684C19.4998 19.0146 19.4394 18.8669 19.3312 18.7576C19.2231 18.6483 19.0759 18.5864 18.9221 18.5855Z" fill="#D02135"/>
</g>
</svg>
