<svg width="24" height="24" viewBox="0 0 24 24" fill="none" xmlns="http://www.w3.org/2000/svg">
<g id="&#232;&#129;&#148;&#231;&#179;&#187;&#230;&#136;&#145;">
<g id="Group 1321315107">
<path id="Vector" d="M19.4412 10.7737C19.5453 10.0756 19.5112 9.36102 19.3389 8.6739C19.1113 7.76618 18.6425 6.90655 17.9327 6.1967C17.2228 5.48686 16.3632 5.01813 15.4555 4.79053C14.7684 4.61823 14.0537 4.58411 13.3557 4.68816" stroke="#D02135" stroke-linecap="round" stroke-linejoin="round"/>
<path id="Vector_2" d="M16.317 10.4433C16.4285 9.69551 16.1964 8.90642 15.6208 8.33081C15.0452 7.75519 14.2561 7.52308 13.5084 7.63454" stroke="#D02135" stroke-linecap="round" stroke-linejoin="round"/>
<path id="Vector_3" d="M8.16108 5.91113C8.46017 5.91113 8.73571 6.07332 8.88085 6.3348L9.88789 8.14875C10.0197 8.38626 10.0259 8.67353 9.90443 8.91651L8.93432 10.8567C8.93432 10.8567 9.21546 12.3022 10.392 13.4787C11.5686 14.6553 13.0092 14.9316 13.0092 14.9316L14.9491 13.9617C15.1923 13.8401 15.4798 13.8464 15.7173 13.9785L17.5364 14.9898C17.7977 15.135 17.9597 15.4105 17.9597 15.7093V17.7977C17.9597 18.8612 16.9718 19.6294 15.9641 19.2893C13.8945 18.591 10.6819 17.2614 8.64569 15.2251C6.60942 13.1889 5.2798 9.97628 4.58146 7.90667C4.24145 6.89898 5.00958 5.91113 6.07307 5.91113H8.16108Z" stroke="#606266" stroke-linejoin="round"/>
</g>
</g>
</svg>
