<svg width="24" height="24" viewBox="0 0 24 24" fill="none" xmlns="http://www.w3.org/2000/svg">
<g id="&#232;&#174;&#190;&#231;&#189;&#174;">
<g id="Group 427318824">
<path id="Vector" d="M9.76976 19.5C8.46238 19.1108 7.29864 18.3881 6.37717 17.4306C6.72093 17.0232 6.92809 16.4968 6.92809 15.922C6.92809 14.6292 5.88008 13.5812 4.58728 13.5812C4.50908 13.5812 4.43177 13.585 4.35553 13.5925C4.25168 13.0848 4.19714 12.5591 4.19714 12.0206C4.19714 11.205 4.32229 10.4186 4.55443 9.67958C4.56536 9.67974 4.57631 9.67982 4.58728 9.67982C5.88008 9.67982 6.92809 8.6318 6.92809 7.339C6.92809 6.96787 6.84172 6.61694 6.688 6.30515C7.59035 5.46612 8.6917 4.8382 9.91345 4.5C10.3006 5.25883 11.0896 5.77847 11.9999 5.77847C12.9102 5.77847 13.6991 5.25883 14.0863 4.5C15.308 4.8382 16.4094 5.46612 17.3117 6.30515C17.158 6.61694 17.0716 6.96787 17.0716 7.339C17.0716 8.6318 18.1196 9.67982 19.4124 9.67982C19.4234 9.67982 19.4344 9.67974 19.4453 9.67958C19.6774 10.4186 19.8026 11.205 19.8026 12.0206C19.8026 12.5591 19.748 13.0848 19.6442 13.5925C19.5679 13.585 19.4907 13.5812 19.4124 13.5812C18.1196 13.5812 17.0716 14.6292 17.0716 15.922C17.0716 16.4968 17.2788 17.0232 17.6225 17.4306C16.7011 18.3881 15.5373 19.1108 14.23 19.5C13.9282 18.5561 13.0439 17.8727 11.9999 17.8727C10.9559 17.8727 10.0715 18.5561 9.76976 19.5Z" stroke="#606266" stroke-linejoin="round"/>
<path id="Vector_2" d="M11.9996 14.7515C13.5079 14.7515 14.7306 13.5288 14.7306 12.0205C14.7306 10.5122 13.5079 9.28955 11.9996 9.28955C10.4914 9.28955 9.26868 10.5122 9.26868 12.0205C9.26868 13.5288 10.4914 14.7515 11.9996 14.7515Z" stroke="#D02135" stroke-linejoin="round"/>
</g>
</g>
</svg>
