<svg width="40" height="40" viewBox="0 0 40 40" fill="none" xmlns="http://www.w3.org/2000/svg">
<g id="&#229;&#134;&#156;&#230;&#176;&#145;&#229;&#183;&#165;">
<path id="Vector" d="M27.5691 18.9804C25.9945 19.0233 24.4674 19.5294 23.1789 20.4355C21.8904 21.3415 20.8976 22.6074 20.3246 24.0747C19.7516 25.542 19.6239 27.1456 19.9575 28.6851C20.291 30.2246 21.071 31.6316 22.1999 32.7302C23.3288 33.8287 24.7565 34.5701 26.3045 34.8616C27.8525 35.1531 29.4521 34.9818 30.9033 34.3691C32.3544 33.7564 33.5928 32.7294 34.4634 31.4167C35.3341 30.104 35.7984 28.5637 35.7984 26.9885C35.7839 25.9223 35.5596 24.8694 35.1383 23.8899C34.7169 22.9104 34.1067 22.0236 33.3425 21.2799C32.5783 20.5363 31.6751 19.9504 30.6845 19.5559C29.6939 19.1613 28.6353 18.9658 27.5691 18.9804ZM31.7706 22.092L29.1012 26.799H31.0282V28.1416H28.7064V29.2946H31.0282V30.6372H28.7064V32.58H26.5108V30.6372H24.1258V29.2946H26.5108V28.1416H24.1258V26.799H26.0844L23.494 22.092H25.8001L27.6955 26.3093H27.7113C27.7745 26.1514 27.8692 25.9145 28.0114 25.6144L29.5593 22.092H31.7706ZM23.9362 18.7119C23.9459 18.7044 23.9537 18.6948 23.9592 18.6839C23.9646 18.6729 23.9676 18.6609 23.9678 18.6487C23.4211 18.3342 22.8443 18.0749 22.2462 17.8748V17.8432C22.5621 17.5746 22.8622 17.3061 23.1781 17.0376C23.9218 16.2214 24.4962 15.2658 24.8682 14.2261C25.3368 12.6542 25.2503 10.9689 24.6233 9.45316C23.9963 7.93744 22.867 6.68357 21.4248 5.90207C20.4963 5.43362 19.4899 5.13918 18.4553 5.03334C17.7181 4.95331 16.9724 5.01769 16.2598 5.22288C14.9543 5.48251 13.7475 6.10242 12.7761 7.01244C11.8046 7.92247 11.1073 9.08626 10.7631 10.3721C9.94178 13.1362 11.5845 16.9113 13.3851 17.7168C13.4128 17.7617 13.4446 17.804 13.4799 17.8432C12.5322 18.4276 11.5213 18.7435 10.6526 19.3437C8.60692 20.7087 6.94212 22.5717 5.81476 24.7573C4.6874 26.943 4.13453 29.3795 4.20816 31.8376H20.0033C19.3171 30.9999 18.831 30.0167 18.5817 28.9629C18.1006 26.8963 18.3763 24.7256 19.3587 22.8448C20.3411 20.964 21.9652 19.4977 23.9362 18.7119Z" fill="url(#paint0_linear_3974_3517)"/>
</g>
<defs>
<linearGradient id="paint0_linear_3974_3517" x1="32.6331" y1="29.3736" x2="7.01286" y2="7.26642" gradientUnits="userSpaceOnUse">
<stop stop-color="#2CCE6E"/>
<stop offset="1" stop-color="#6FF9AB"/>
</linearGradient>
</defs>
</svg>
