<svg width="50" height="50" viewBox="0 0 50 50" fill="none" xmlns="http://www.w3.org/2000/svg">
<g id="&#229;&#177;&#165;&#231;&#186;&#166;">
<path id="Union" d="M34.4468 27.7354C39.1755 27.7356 42.9995 31.5599 42.9995 36.2891C42.9993 41.0181 39.1754 44.8416 34.4468 44.8418C29.718 44.8418 25.8942 41.0182 25.894 36.2891C25.894 31.5598 29.7179 27.7354 34.4468 27.7354ZM38.9487 5.1582C39.5596 5.15826 40.1478 5.40702 40.5776 5.83691C41.0074 6.2668 41.2565 6.85496 41.2339 7.46582V27.6729C39.3785 26.2699 37.0929 25.4326 34.604 25.4326C28.5402 25.4328 23.6079 30.3663 23.6079 36.4307C23.608 38.8292 24.4001 41.1598 25.8481 43.0605H9.30811C8.04103 43.0605 6.99951 42.0191 6.99951 40.752V7.46582C6.99956 6.85492 7.24934 6.26681 7.6792 5.83691C8.10909 5.40705 8.69725 5.1582 9.30811 5.1582H38.9487ZM15.5298 30.502C14.557 30.4569 13.743 31.2263 13.6978 32.1992C13.6979 32.991 14.218 33.6468 14.9419 33.873V33.9189C14.9645 34.2356 14.9873 34.5524 14.9194 34.8691C14.8968 35.1859 14.6252 35.5026 14.2407 35.8193C14.0597 35.9777 13.8781 36.159 13.6519 36.3174H12.3394C12.1812 36.3177 12.0455 36.4531 12.0454 36.6113V38.3994C12.0456 38.5575 12.1813 38.6931 12.3394 38.6934H18.7427C18.9009 38.6934 19.0374 38.5577 19.0376 38.3994L19.0142 36.6113C19.0141 36.453 18.8786 36.3174 18.7202 36.3174H17.4312C17.2049 36.159 17.0233 35.9777 16.8423 35.8193C16.4578 35.5026 16.1862 35.1859 16.1636 34.8691C16.0957 34.5524 16.1185 34.2356 16.1411 33.9189V33.8281C16.7745 33.5566 17.2269 32.9458 17.2271 32.1992C17.2044 31.2715 16.4575 30.5472 15.5298 30.502ZM34.0845 30.1787C33.4057 30.1787 32.8628 30.7225 32.8628 31.4014V36.2891C32.863 36.9677 33.4058 37.5107 34.0845 37.5107H38.9712C39.6499 37.5107 40.1937 36.9677 40.1938 36.2891C40.1938 35.6102 39.65 35.0664 38.9712 35.0664H35.3062V31.4014C35.3062 30.7226 34.7632 30.1788 34.0845 30.1787ZM13.9692 22.876C13.2905 22.876 12.7477 23.4189 12.7476 24.0977C12.7476 24.7765 13.2904 25.3203 13.9692 25.3203H23.6079C24.2867 25.3203 24.8296 24.7765 24.8296 24.0977C24.8295 23.419 24.2866 22.876 23.6079 22.876H13.9692ZM13.9692 16.7666C13.3357 16.7892 12.8151 17.2871 12.7925 17.9434C12.7701 18.622 13.2906 19.1873 13.9692 19.21H33.4048C34.0834 19.1873 34.604 18.622 34.5815 17.9434C34.5589 17.2646 33.9936 16.7442 33.3149 16.7666H13.9692ZM13.9692 11.041C13.2904 11.041 12.7476 11.5848 12.7476 12.2637C12.7478 12.9423 13.2906 13.4854 13.9692 13.4854H33.3149C33.9934 13.4851 34.5364 12.9196 34.5366 12.2637C34.5366 11.585 33.9935 11.0412 33.3149 11.041H13.9692Z" fill="url(#paint0_linear_4292_4835)"/>
</g>
<defs>
<linearGradient id="paint0_linear_4292_4835" x1="39.3932" y1="37.3993" x2="6.5892" y2="13.0191" gradientUnits="userSpaceOnUse">
<stop stop-color="#EC3C3C"/>
<stop offset="1" stop-color="#FF8383"/>
</linearGradient>
</defs>
</svg>
