<svg width="40" height="40" viewBox="0 0 40 40" fill="none" xmlns="http://www.w3.org/2000/svg">
<g id="&#232;&#180;&#168;&#233;&#135;&#143;&#228;&#191;&#157;&#229;&#135;&#189;">
<g id="Vector">
<path d="M24.9052 29.2683L26.1799 28.8862L27.3881 28.5017L26.5613 27.6115L25.7332 26.7841L25.2878 28.0563L24.9052 29.2683ZM32.4211 20.0314L25.86 26.6561L27.5161 28.311L34.1409 21.7524L32.4211 20.0314Z" fill="url(#paint0_linear_4045_5512)"/>
<path fill-rule="evenodd" clip-rule="evenodd" d="M30.3243 5C30.9547 5 31.4656 5.51209 31.4656 6.1424V19.6662L24.8709 26.2453L23.8388 30.2855L27.8623 29.4017L31.4656 25.8519V33.8587C31.4656 34.489 30.9547 35 30.3243 35H7.00042C6.3701 35 5.85913 34.489 5.85913 33.8587V6.14129C5.85943 5.51123 6.37029 5 7.00042 5H30.3243ZM19.1801 31.9562H28.599V30.3501H19.1801V31.9562ZM10.3184 23.0299H19.6827V20.9234H10.3184V23.0299ZM10.3184 17.3268H27.071V14.9996H10.3184V17.3268ZM10.3184 9.01122V10.8981H27.0699V9.01122H10.3184Z" fill="url(#paint1_linear_4045_5512)"/>
</g>
</g>
<defs>
<linearGradient id="paint0_linear_4045_5512" x1="31.3076" y1="29.3736" x2="6.24901" y2="10.0195" gradientUnits="userSpaceOnUse">
<stop stop-color="#2E7DF3"/>
<stop offset="1" stop-color="#49A9FB"/>
</linearGradient>
<linearGradient id="paint1_linear_4045_5512" x1="31.3076" y1="29.3736" x2="6.24901" y2="10.0195" gradientUnits="userSpaceOnUse">
<stop stop-color="#2E7DF3"/>
<stop offset="1" stop-color="#49A9FB"/>
</linearGradient>
</defs>
</svg>
