<svg width="40" height="40" viewBox="0 0 40 40" fill="none" xmlns="http://www.w3.org/2000/svg">
<g id="&#233;&#162;&#132;&#228;&#187;&#152;&#230;&#172;&#190;">
<g id="Vector">
<path d="M27.0713 23.2138C25.5395 23.242 24.2921 22.0044 24.3205 20.4849C24.3472 19.0527 25.5252 17.8841 26.9687 17.8576C28.5005 17.8295 29.7479 19.067 29.7195 20.5866C29.6928 22.0187 28.5148 23.1873 27.0713 23.2138ZM28.1 29.0501C28.1 29.1432 28.0072 29.2083 27.9189 29.1768C27.6239 29.0718 27.0206 28.8407 27.0206 28.8407C26.9777 28.8719 26.4172 29.0724 26.1209 29.1773C26.0326 29.2086 25.94 29.1435 25.94 29.0505V25.3571H28.1V29.0501ZM27.02 30.9286C27.0337 30.9286 27.0336 30.9357 27.0219 30.9489C27.0091 30.9357 27.0078 30.9286 27.02 30.9286Z" fill="url(#paint0_linear_4045_5507)"/>
<path d="M31.2044 35H8.66C7.46709 35 6.5 34.0406 6.5 32.8571V7.14286C6.5 5.95938 7.46709 5 8.66 5H31.34C32.5329 5 33.5 5.95938 33.5 7.14286V32.7226C33.5 33.9804 32.4722 35 31.2044 35ZM10.28 20H16.7375C17.326 20 17.8234 19.5423 17.8396 18.9587C17.8563 18.3532 17.3665 17.8571 16.76 17.8571H10.3025C9.71401 17.8571 9.21658 18.3149 9.20044 18.8985C9.18368 19.504 9.67344 20 10.28 20ZM10.28 15.7143H18.8975C19.486 15.7143 19.9834 15.2565 19.9996 14.6729C20.0163 14.0675 19.5265 13.5714 18.92 13.5714H10.3025C9.71401 13.5714 9.21658 14.0292 9.20044 14.6127C9.18368 15.2183 9.67344 15.7143 10.28 15.7143ZM29.72 9.28572H10.3025C9.71401 9.28572 9.21658 9.74346 9.20044 10.3271C9.18371 10.9325 9.6735 11.4286 10.28 11.4286H29.6976C30.286 11.4286 30.7835 10.9708 30.7996 10.3873C30.8163 9.78178 30.3266 9.28572 29.72 9.28572ZM26.9851 15.7144C24.3183 15.733 22.1497 17.9092 22.16 20.5549C22.1656 21.975 22.7903 23.2502 23.78 24.129V32.2781C23.78 32.5372 24.0614 32.7001 24.2886 32.5724C25.0845 32.1249 26.5721 31.2804 26.9442 31.0125C26.9671 30.996 26.9945 30.987 27.0227 30.9868C27.0509 30.9867 27.0785 30.9954 27.1015 31.0116C27.4794 31.2782 28.9576 32.1216 29.7506 32.5701C29.9778 32.6986 30.26 32.5357 30.26 32.2762V24.129C31.2541 23.2462 31.88 21.9635 31.88 20.5357C31.88 17.8614 29.6853 15.6956 26.9851 15.7144Z" fill="url(#paint1_linear_4045_5507)"/>
</g>
</g>
<defs>
<linearGradient id="paint0_linear_4045_5507" x1="30.7952" y1="29.3736" x2="6.05327" y2="11.1302" gradientUnits="userSpaceOnUse">
<stop stop-color="#FF9A31"/>
<stop offset="1" stop-color="#FFC368"/>
</linearGradient>
<linearGradient id="paint1_linear_4045_5507" x1="30.7952" y1="29.3736" x2="6.05327" y2="11.1302" gradientUnits="userSpaceOnUse">
<stop stop-color="#FF9A31"/>
<stop offset="1" stop-color="#FFC368"/>
</linearGradient>
</defs>
</svg>
