<svg width="134" height="24" viewBox="0 0 134 24" fill="none" xmlns="http://www.w3.org/2000/svg">
<path d="M123.33 4.96802H125.874V5.49602L130.642 5.52802C130.812 5.56002 130.94 5.65068 131.026 5.80002C131.079 5.92802 131.106 6.20002 131.106 6.61602C131.106 6.96802 131.1 7.14402 131.09 7.14402L125.89 7.16002C125.879 7.16002 125.874 7.22935 125.874 7.36802V7.56002H128.85C129.458 7.56002 129.836 7.57068 129.986 7.59202C130.167 7.63468 130.295 7.69335 130.37 7.76802C130.455 7.84268 130.514 7.96002 130.546 8.12002C130.567 8.26935 130.578 8.59468 130.578 9.09602V9.78402L130.546 11.048C130.524 11.2507 130.498 11.4054 130.466 11.512C130.423 11.672 130.38 11.7627 130.338 11.784L130.322 11.816L130.29 11.88C130.268 11.912 130.247 11.944 130.226 11.976C130.194 12.0294 130.082 12.1147 129.89 12.232C129.676 12.36 129.415 12.4454 129.106 12.488C128.892 12.5094 128.258 12.5307 127.202 12.552L125.858 12.568L125.89 13.08L128.114 13V12.984L128.05 12.744C128.028 12.6907 128.023 12.6587 128.034 12.648L128.354 12.632L129.73 12.664C129.975 12.664 130.146 12.68 130.242 12.712C130.348 12.744 130.428 12.8187 130.482 12.936C130.535 13.0534 130.61 13.2774 130.706 13.608L130.946 14.488L131.09 15L129.954 15.016H128.818L128.786 14.92L128.722 14.744L128.69 14.632H128.562L127.026 14.696L126.418 14.712L119.874 14.952L118.114 14.984V13.256L118.37 13.24L123.17 13.144C123.191 13.1334 123.228 13.128 123.282 13.128H123.346L123.33 12.84V12.552H118.578V10.104L118.594 7.60802V7.56002H121.154V7.92802L121.17 8.29602L121.298 8.13602C121.49 7.91202 121.639 7.77335 121.746 7.72002C121.927 7.62402 122.3 7.57602 122.866 7.57602H123.33V7.14402L120.706 7.16002L118.082 7.14402L118.066 6.32802V5.51202H123.33V4.96802ZM122.69 9.01602H121.362L121.17 9.03202V9.08002C121.159 9.11202 121.154 9.19202 121.154 9.32002L121.17 9.51202H123.33V9.27202L123.346 9.03202L122.69 9.01602ZM128.018 9.27202V9.03202L127.106 9.01602H126.034L125.858 9.03202L125.874 9.27202V9.51202H128.002L128.018 9.27202ZM123.33 10.664L122.258 10.648H121.17L121.154 10.904V11.128H123.33V10.664ZM128.018 10.888L128.002 10.664L126.946 10.648H125.874V11.128H128.018V10.888ZM124.674 15.192H125.474L126.45 15.208C126.674 15.2187 126.834 15.2987 126.93 15.448C126.994 15.544 127.047 15.7787 127.09 16.152L127.138 16.488L127.154 16.632C127.164 16.6427 127.143 16.648 127.09 16.648H125.954L125.394 16.632H124.882L124.866 16.552L124.69 15.256L124.674 15.192ZM118.578 15.224H120.994V15.72C120.994 16.456 120.978 17.016 120.946 17.4C120.924 17.6454 120.892 17.864 120.85 18.056C120.711 18.6107 120.252 18.9574 119.474 19.096C119.282 19.1174 118.983 19.128 118.578 19.128C118.119 19.1387 117.884 19.1387 117.874 19.128V17.032H118.578V15.224ZM121.442 15.224H123.954V17.032H127.826V19.128L127.186 19.144L123.522 19.112C123.223 19.0907 122.999 19.064 122.85 19.032C122.263 18.9254 121.863 18.664 121.65 18.248C121.596 18.1414 121.543 17.9707 121.49 17.736L121.442 17.56V15.224ZM130.498 15.288V17.032H131.25V18.088L131.234 19.144H130.514L129.698 19.128C129.175 19.064 128.791 18.8934 128.546 18.616C128.375 18.4134 128.258 18.1467 128.194 17.816C128.14 17.5494 128.114 17.0427 128.114 16.296V15.288H130.498Z" fill="#D02135"/>
<path d="M101.986 4.96802L103.186 4.98402C103.346 5.00535 103.458 5.04802 103.522 5.11202C103.66 5.25068 103.735 5.43202 103.746 5.65602V5.70402H107.442L107.474 5.54402C107.538 5.25602 107.655 5.07468 107.826 5.00002L107.89 4.96802H109.154L110.402 4.98402C110.402 5.12268 110.359 5.35202 110.274 5.67202V5.70402L110.882 5.72002H111.506L111.586 5.76802C111.692 5.82135 111.767 5.88535 111.81 5.96002C111.842 6.00268 111.868 6.07735 111.89 6.18402V7.62402H108.562V10.232L111.762 10.248C111.922 10.28 112.044 10.36 112.13 10.488L112.194 10.68C112.215 10.7867 112.226 11.0427 112.226 11.448V12.104H99.0098V11.16C99.0098 10.5414 99.0204 10.232 99.0418 10.232H102.866V7.62402L99.4898 7.60802V6.66402C99.4791 6.04535 99.4844 5.72535 99.5058 5.70402L99.8098 5.72002L100.514 5.73602H100.93V5.67202L100.818 5.03202C100.818 5.00002 100.823 4.97868 100.834 4.96802H101.986ZM106.13 7.60802H105.314V8.90402L105.33 10.216H106.13V7.60802ZM99.7618 8.00802H100.674L101.682 8.02402C101.799 8.04535 101.89 8.09335 101.954 8.16802C102.05 8.27468 102.119 8.47735 102.162 8.77602L102.29 9.36802L102.434 9.89602C102.434 9.90668 102.22 9.91202 101.794 9.91202L100.146 9.89602L99.8578 8.53602L99.7938 8.16802L99.7618 8.05602V8.00802ZM111.474 8.02402L111.426 8.24802L111.25 9.11202L111.186 9.35202L111.122 9.64002L111.074 9.88002L111.058 9.91202H109.938L108.834 9.89602L109.026 9.11202C109.143 8.62135 109.244 8.31735 109.33 8.20002C109.372 8.12535 109.42 8.07735 109.474 8.05602C109.527 8.03468 109.623 8.02402 109.762 8.02402H111.474ZM99.8738 12.52H102.562V13.464C102.562 13.464 102.583 13.4374 102.626 13.384C102.775 13.1494 102.935 12.9734 103.106 12.856C103.287 12.728 103.506 12.632 103.762 12.568L103.922 12.536H110.85C111.084 12.5574 111.255 12.6054 111.362 12.68C111.447 12.7334 111.516 12.84 111.57 13C111.591 13.0747 111.607 13.7627 111.618 15.064L111.602 17.144L111.57 17.4C111.538 17.688 111.463 17.96 111.346 18.216C111.271 18.3654 111.186 18.488 111.09 18.584C110.727 18.936 110.06 19.1174 109.09 19.128H99.8738V12.52ZM102.562 14.36L102.546 14.424V14.696L102.562 14.92H108.914V14.376L102.562 14.36ZM108.914 16.568H102.562L102.546 16.792C102.546 16.9307 102.551 17.016 102.562 17.048V17.112L108.914 17.096V16.568Z" fill="#1D2129"/>
<path d="M92.2958 11.3359V14.2639H89.6558V11.3359H92.2958Z" fill="#1D2129"/>
<path d="M82.2962 5.84789C82.7122 5.84789 82.9202 6.05589 82.9202 6.47189V7.78389H73.3842V5.84789H76.7922L76.6642 5.19189H78.6642C78.8349 5.19189 78.9575 5.23989 79.0322 5.33589C79.1175 5.43189 79.1869 5.58656 79.2402 5.79989L79.2562 5.84789H82.2962ZM81.8642 8.45589C82.2802 8.45589 82.4882 8.66389 82.4882 9.07989V10.3919H73.8962V8.45589H81.8642ZM81.8642 11.0479C82.2802 11.0479 82.4882 11.2559 82.4882 11.6719V12.9839H73.9122V11.0479H81.8642ZM76.6322 14.2639C76.8029 13.9866 77.0162 13.7892 77.2722 13.6719C77.5282 13.5546 77.8322 13.4959 78.1842 13.4959H81.4162C81.8642 13.4959 82.1895 13.5332 82.3922 13.6079C82.5949 13.6719 82.7229 13.7946 82.7762 13.9759C82.8402 14.1466 82.8722 14.4292 82.8722 14.8239V16.7119C82.8722 17.3199 82.8029 17.7786 82.6642 18.0879C82.5255 18.3972 82.2375 18.6212 81.8002 18.7599C81.3629 18.9092 80.6802 18.9839 79.7522 18.9839H73.6082V13.4959H76.4242V14.5999L76.6322 14.2639ZM69.3042 8.8559H70.2002L70.9522 5.28789L73.4802 5.30389L72.7602 9.03189V19.1119H70.2642V11.1599H69.3042V8.8559ZM80.0402 16.9679V15.3199H76.4242V16.9679H80.0402Z" fill="#D02135"/>
<path d="M62.904 6.26396C63.32 6.26396 63.528 6.47196 63.528 6.88796V8.26396H51.336V6.26396H56.024L55.768 4.85596H58.024C58.1947 4.85596 58.3227 4.90396 58.408 4.99996C58.4934 5.09596 58.5574 5.25062 58.6 5.46396L58.776 6.26396H62.904ZM63.256 16.728C63.672 16.728 63.88 16.936 63.88 17.352V18.888H50.728V16.728H57.496L59.832 9.91196C59.9067 9.68796 59.9814 9.52796 60.056 9.43196C60.1307 9.33596 60.2534 9.28796 60.424 9.28796H62.84L60.296 16.728H63.256ZM53.752 15.8L52.072 9.60796H54.424C54.5947 9.60796 54.7174 9.65596 54.792 9.75196C54.8774 9.84796 54.952 10.008 55.016 10.232L56.52 15.8H53.752Z" fill="#1D2129"/>
<path d="M44.0624 11.3359V14.2639H41.4224V11.3359H44.0624Z" fill="#1D2129"/>
<path d="M24.5902 5.46387V6.51987L24.6862 6.35987C24.8782 6.03987 25.0809 5.81053 25.2942 5.67187C25.5076 5.5332 25.7902 5.46387 26.1422 5.46387H32.7982C33.1502 5.46387 33.4009 5.49587 33.5502 5.55987C33.7102 5.6132 33.8116 5.71453 33.8542 5.86387C33.9076 6.00253 33.9342 6.2372 33.9342 6.56787V8.61587C33.9342 9.28787 33.8756 9.79453 33.7582 10.1359C33.6516 10.4772 33.4116 10.7332 33.0382 10.9039C32.6649 11.0639 32.0836 11.1439 31.2942 11.1439H29.9502L30.2702 12.3119H33.8542C34.2702 12.3119 34.4782 12.5199 34.4782 12.9359V14.3119H30.8462L31.5822 16.9679H34.5742V19.1279H31.5662C31.0009 19.1279 30.5476 19.0639 30.2062 18.9359C29.8756 18.8185 29.6036 18.6052 29.3902 18.2959C29.1769 17.9972 28.9902 17.5652 28.8302 16.9999L28.0782 14.3119H24.5902V16.9679H28.1422V19.1279H24.0782C23.3636 19.1279 22.8196 18.9519 22.4462 18.5999C22.0729 18.2585 21.8862 17.7625 21.8862 17.1119V5.46387H24.5902ZM27.5182 12.3119L27.1822 11.1439H24.5902V12.3119H27.5182ZM31.3742 9.14387V7.44787H24.5902V9.14387H31.3742Z" fill="#D02135"/>
<path d="M3.47 6.95193L3.278 5.15993H4.798C5.10733 5.15993 5.31533 5.2026 5.422 5.28793C5.52867 5.37326 5.598 5.56526 5.63 5.86393L5.742 6.95193L6.142 6.93593L6.366 5.12793H9.038L8.814 6.93593H8.846L8.702 8.08793L8.846 7.83193C9.01667 7.5226 9.22467 7.2986 9.47 7.15993C9.71533 7.0106 10.014 6.93593 10.366 6.93593H14.174C14.558 6.93593 14.8353 6.97326 15.006 7.04793C15.1873 7.1226 15.3047 7.2506 15.358 7.43193C15.422 7.61326 15.454 7.90126 15.454 8.29593L15.422 16.4879C15.422 17.1173 15.3153 17.6186 15.102 17.9919C14.8887 18.3759 14.5313 18.6533 14.03 18.8239C13.5287 19.0053 12.8407 19.0959 11.966 19.0959H10.286V16.9519H12.814L12.846 8.95193H8.558L7.614 16.3119C7.486 17.2933 7.17667 17.9973 6.686 18.4239C6.19533 18.8506 5.49133 19.0639 4.574 19.0639H2.75L2.766 16.9199H4.878L5.886 8.96793H2.846V6.95193H3.47ZM9.646 15.2719L8.942 10.5679H10.894C11.2353 10.5679 11.4327 10.7759 11.486 11.1919L12.014 15.2719H9.646Z" fill="#1D2129"/>
</svg>
