<svg width="44" height="44" viewBox="0 0 44 44" fill="none" xmlns="http://www.w3.org/2000/svg">
<g id="&#230;&#147;&#141;&#228;&#189;&#156;&#230;&#140;&#135;&#229;&#141;&#151;">
<rect width="44" height="44" rx="6" fill="url(#paint0_linear_4292_5068)"/>
<g id="Frame">
<path id="Vector" d="M12.4007 10H31.5994C32.4832 10 33.1999 10.7166 33.1999 11.6004V22.7986C32.5118 21.8828 31.6351 21.1254 30.6291 20.5778C29.623 20.0301 28.5111 19.7049 27.3684 19.6242C26.2258 19.5435 25.0792 19.7091 24.0061 20.1099C22.9331 20.5106 21.9586 21.1372 21.1486 21.9471C20.3387 22.7571 19.7121 23.7316 19.3114 24.8046C18.9106 25.8777 18.745 27.0243 18.8257 28.1669C18.9064 29.3095 19.2316 30.4215 19.7793 31.4276C20.3269 32.4336 21.0843 33.3103 22.0001 33.9983H12.4007C11.9763 33.9983 11.5692 33.8297 11.2691 33.5296C10.9689 33.2294 10.8003 32.8224 10.8003 32.3979V11.6004C10.8003 10.7166 11.5169 10 12.4007 10ZM28.4002 14.1492H14.0012C13.7889 14.1492 13.5854 14.2335 13.4353 14.3836C13.2853 14.5337 13.201 14.7372 13.201 14.9495C13.201 15.1617 13.2853 15.3652 13.4353 15.5153C13.5854 15.6654 13.7889 15.7497 14.0012 15.7497H28.4002C28.6124 15.7497 28.816 15.6654 28.966 15.5153C29.1161 15.3652 29.2004 15.1617 29.2004 14.9495C29.2004 14.7372 29.1161 14.5337 28.966 14.3836C28.816 14.2335 28.6124 14.1492 28.4002 14.1492ZM13.2001 21.1882C13.2001 21.6301 13.5593 21.9876 14.0012 21.9876H18.8008C18.9058 21.9876 19.0098 21.9669 19.1068 21.9267C19.2037 21.8866 19.2919 21.8277 19.3661 21.7534C19.4403 21.6792 19.4992 21.5911 19.5394 21.4941C19.5796 21.3971 19.6002 21.2932 19.6002 21.1882C19.6002 21.0832 19.5796 20.9793 19.5394 20.8823C19.4992 20.7853 19.4403 20.6972 19.3661 20.6229C19.2919 20.5487 19.2037 20.4898 19.1068 20.4497C19.0098 20.4095 18.9058 20.3888 18.8008 20.3888H14.0012C13.8961 20.3886 13.7919 20.4091 13.6948 20.4492C13.5976 20.4893 13.5093 20.5481 13.4348 20.6224C13.3604 20.6966 13.3014 20.7848 13.2611 20.8819C13.2209 20.979 13.2001 21.0831 13.2001 21.1882ZM20.3996 27.5999C20.3996 26.7594 20.5652 25.9272 20.8868 25.1507C21.2084 24.3742 21.6799 23.6686 22.2742 23.0743C22.8685 22.48 23.574 22.0086 24.3505 21.687C25.127 21.3653 25.9593 21.1998 26.7997 21.1998C27.6402 21.1998 28.4725 21.3653 29.249 21.687C30.0255 22.0086 30.731 22.48 31.3253 23.0743C31.9196 23.6686 32.391 24.3742 32.7127 25.1507C33.0343 25.9272 33.1999 26.7594 33.1999 27.5999C33.1999 29.2973 32.5256 30.9252 31.3253 32.1255C30.1251 33.3257 28.4972 34 26.7997 34C25.1023 34 23.4744 33.3257 22.2742 32.1255C21.0739 30.9252 20.3996 29.2973 20.3996 27.5999ZM25.4641 26.3503L22.821 30.1338C22.7962 30.1679 22.7741 30.2039 22.7548 30.2414C22.6257 30.5029 22.6621 30.7776 22.8243 30.953C22.9584 31.1401 23.2066 31.2311 23.4814 31.1682C23.5219 31.1591 23.5618 31.1469 23.6005 31.1318L27.8788 29.4436C27.9713 29.4063 28.0569 29.3537 28.1321 29.288C28.2199 29.2276 28.2961 29.152 28.3572 29.0646L31.0019 25.2828C31.0261 25.2486 31.0477 25.2127 31.0665 25.1752C31.1906 24.9237 31.1625 24.6605 31.0168 24.4851C30.8877 24.2798 30.6295 24.1772 30.3416 24.2418C30.3009 24.2514 30.2611 24.2642 30.2224 24.2798L25.9441 25.968C25.8406 26.009 25.7457 26.0691 25.6644 26.1451C25.5876 26.2024 25.5205 26.2717 25.4658 26.3503H25.4641ZM26.1592 27.7753C26.1592 27.5631 26.2435 27.3596 26.3936 27.2095C26.5437 27.0594 26.7472 26.9751 26.9595 26.9751C27.1717 26.9751 27.3752 27.0594 27.5253 27.2095C27.6754 27.3596 27.7597 27.5631 27.7597 27.7753C27.7597 27.9876 27.6754 28.1911 27.5253 28.3412C27.3752 28.4912 27.1717 28.5755 26.9595 28.5755C26.7472 28.5755 26.5437 28.4912 26.3936 28.3412C26.2435 28.1911 26.1592 27.9876 26.1592 27.7753Z" fill="url(#paint1_linear_4292_5068)"/>
</g>
</g>
<defs>
<linearGradient id="paint0_linear_4292_5068" x1="39.5922" y1="35.748" x2="2.34884" y2="5.23539" gradientUnits="userSpaceOnUse">
<stop stop-color="#FF6F00"/>
<stop offset="1" stop-color="#F7B315"/>
</linearGradient>
<linearGradient id="paint1_linear_4292_5068" x1="12.7276" y1="11.538" x2="28.6368" y2="36.2316" gradientUnits="userSpaceOnUse">
<stop stop-color="white"/>
<stop offset="1" stop-color="#FFDDB8"/>
</linearGradient>
</defs>
</svg>
