<svg width="44" height="44" viewBox="0 0 44 44" fill="none" xmlns="http://www.w3.org/2000/svg">
<g id="&#229;&#156;&#168;&#231;&#186;&#191;&#229;&#174;&#162;&#230;&#156;&#141;">
<rect width="44" height="44" rx="6" fill="url(#paint0_linear_4292_5092)"/>
<g id="Frame">
<path id="Union" d="M32.8198 21.3105C32.9184 21.3078 33.0169 21.322 33.1128 21.3555C33.3128 21.4253 33.4746 21.5731 33.5679 21.7686C33.7898 22.2352 33.9627 22.7189 34.0806 23.2051C34.2094 23.7473 34.2753 24.315 34.2808 24.8936C34.2808 26.0451 33.9901 27.2051 33.4419 28.2588C32.9102 29.2844 32.1316 30.2009 31.186 30.9248V32.1572C31.186 32.8279 30.8244 33.4575 30.2407 33.793C30.2051 33.8153 30.1636 33.8347 30.1226 33.8486C29.8512 33.9493 29.5988 34 29.3521 34C28.9903 34 28.6391 33.8935 28.3403 33.6895L27.4722 33.1055C27.401 33.0664 27.3373 33.0189 27.2798 32.9658L26.8335 32.6582C24.8626 32.9181 22.9267 32.5687 21.2437 31.6436C20.9094 31.4619 20.7561 31.0735 20.8491 30.7158C26.9454 30.6655 31.9893 26.5846 32.8198 21.3105ZM20.7339 10C26.8079 10.0002 31.7467 14.4266 31.7524 19.8652C31.7524 25.307 26.8104 29.7344 20.7388 29.7344C20.1605 29.7344 19.5659 29.6901 18.9712 29.6035L18.061 30.2129C18.0093 30.2546 17.9627 30.2849 17.938 30.3018L16.688 31.1377C16.4276 31.3222 16.0736 31.4287 15.7173 31.4287C15.4158 31.4287 15.114 31.3503 14.8481 31.2021C14.2726 30.8975 13.9 30.2714 13.8999 29.6035V27.6162C12.6199 26.7107 11.5671 25.534 10.8462 24.2148C10.1088 22.8677 9.71924 21.3607 9.71924 19.8682C9.71941 14.4266 14.6596 10 20.7339 10ZM16.937 18.4209C16.2517 18.4209 15.6929 18.9856 15.6929 19.6787C15.693 20.3717 16.2491 20.9365 16.937 20.9365C17.6222 20.9365 18.181 20.3717 18.1812 19.6787C18.1812 18.9856 17.6223 18.4209 16.937 18.4209ZM20.9751 18.4209C20.2898 18.4209 19.73 18.9856 19.73 19.6787C19.7302 20.3717 20.2899 20.9365 20.9751 20.9365C21.6601 20.9363 22.2163 20.3716 22.2192 19.6787C22.2192 18.9857 21.6602 18.4211 20.9751 18.4209ZM25.0122 18.4209C24.327 18.421 23.7681 18.9856 23.7681 19.6787C23.7682 20.3716 24.3271 20.9364 25.0122 20.9365C25.6974 20.9365 26.2572 20.3717 26.2573 19.6787C26.2573 18.9856 25.6975 18.4209 25.0122 18.4209Z" fill="url(#paint1_linear_4292_5092)"/>
</g>
</g>
<defs>
<linearGradient id="paint0_linear_4292_5092" x1="-4.03885e-07" y1="5.75985" x2="33.1903" y2="40.9638" gradientUnits="userSpaceOnUse">
<stop stop-color="#9696FF"/>
<stop offset="1" stop-color="#4B58E1"/>
</linearGradient>
<linearGradient id="paint1_linear_4292_5092" x1="17.2444" y1="11.3674" x2="29.7301" y2="31.9521" gradientUnits="userSpaceOnUse">
<stop stop-color="white"/>
<stop offset="1" stop-color="#DACDFF"/>
</linearGradient>
</defs>
</svg>
