<svg width="44" height="44" viewBox="0 0 44 44" fill="none" xmlns="http://www.w3.org/2000/svg">
<g id="&#229;&#149;&#134;&#229;&#138;&#161;&#229;&#144;&#136;&#228;&#189;&#156;">
<rect width="44" height="44" rx="6" fill="url(#paint0_linear_4398_4105)"/>
<g id="Frame">
<path id="Vector" d="M28.0696 15.9999C28.0696 17.5912 27.4375 19.1173 26.3123 20.2425C25.1871 21.3677 23.661 21.9999 22.0697 21.9999C20.4784 21.9999 18.9523 21.3677 17.8271 20.2425C16.7019 19.1173 16.0698 17.5912 16.0698 15.9999C16.0698 14.4086 16.7019 12.8825 17.8271 11.7573C18.9523 10.6321 20.4784 10 22.0697 10C23.661 10 25.1871 10.6321 26.3123 11.7573C27.4375 12.8825 28.0696 14.4086 28.0696 15.9999ZM34.0695 33.9997C34.0695 27.9747 28.1678 23.0908 22.0697 23.0908C15.9716 23.0908 10.0698 27.9747 10.0698 33.9997H34.0695ZM22.9511 27.7598L24.2362 31.9794C24.257 32.0719 24.2525 32.1684 24.2231 32.2586C24.1938 32.3489 24.1406 32.4295 24.0693 32.4921L22.326 33.9135C22.2523 33.9696 22.1623 34 22.0697 34C21.9771 34 21.887 33.9696 21.8133 33.9135L20.0701 32.4921C19.9989 32.4294 19.9459 32.3487 19.9166 32.2585C19.8872 32.1684 19.8826 32.072 19.9032 31.9794L21.1882 27.7587C21.2384 27.5918 21.4315 27.4543 21.6191 27.4543H22.5202C22.7079 27.4543 22.902 27.5918 22.9511 27.7598ZM22.8028 26.0427C22.7417 26.2184 22.5693 26.3634 22.4177 26.3634H21.6879C21.5362 26.3634 21.3661 26.2184 21.3082 26.0405L20.9984 24.9693C20.9417 24.7915 21.0115 24.5929 21.1533 24.5275L21.8079 24.2307C21.9497 24.1653 22.1831 24.1653 22.326 24.2296L22.9882 24.5286C23.1311 24.5929 23.1988 24.7904 23.1388 24.966L22.8028 26.0427Z" fill="url(#paint1_linear_4398_4105)"/>
</g>
</g>
<defs>
<linearGradient id="paint0_linear_4398_4105" x1="39.5922" y1="35.748" x2="2.34884" y2="5.23539" gradientUnits="userSpaceOnUse">
<stop stop-color="#FF0048"/>
<stop offset="1" stop-color="#FF7AA2"/>
</linearGradient>
<linearGradient id="paint1_linear_4398_4105" x1="13.7631" y1="17.8386" x2="32.3617" y2="34" gradientUnits="userSpaceOnUse">
<stop stop-color="#FFFFFE"/>
<stop offset="1" stop-color="#FF9EBA"/>
</linearGradient>
</defs>
</svg>
