<svg width="44" height="44" viewBox="0 0 44 44" fill="none" xmlns="http://www.w3.org/2000/svg">
<g id="&#228;&#184;&#154;&#229;&#138;&#161;&#228;&#187;&#139;&#231;&#187;&#141;">
<rect width="44" height="44" rx="6" fill="url(#paint0_linear_4292_5087)"/>
<g id="Table-report (&#230;&#138;&#165;&#232;&#161;&#168;)">
<g id="Vector">
<path d="M32.4 21.9615C32.4 21.9366 32.3891 21.8623 32.2703 21.7701C32.1504 21.677 31.9513 21.5974 31.7 21.5974H28.7C28.4487 21.5974 28.2496 21.677 28.1297 21.7701C28.0109 21.8623 28 21.9366 28 21.9615V32.8029H30.95C31.9511 32.8029 32.3998 32.2026 32.4 31.8568V21.9615ZM34 31.8568C33.9998 33.4397 32.4339 34.4029 30.95 34.4029H27.2C26.7582 34.4029 26.4001 34.0446 26.4 33.6029V21.9615C26.4 20.6999 27.6303 19.9974 28.7 19.9974H31.7C32.7697 19.9974 34 20.6999 34 21.9615V31.8568Z" fill="url(#paint1_linear_4292_5087)"/>
<path fill-rule="evenodd" clip-rule="evenodd" d="M26.6 9.59741C27.8151 9.59741 28.8 10.5824 28.8 11.7974V33.9974C28.8 34.2183 28.6209 34.3974 28.4 34.3974H12.2C10.985 34.3974 10 33.4125 10 32.1974V11.7974C10 10.5824 10.985 9.59741 12.2 9.59741H26.6ZM14.1133 25.9873C13.5479 25.9873 13.0893 26.3456 13.0891 26.7873C13.0891 27.2291 13.5477 27.5873 14.1133 27.5873H24.8648C25.4304 27.5873 25.8891 27.2291 25.8891 26.7873C25.8889 26.3456 25.4303 25.9873 24.8648 25.9873H14.1133ZM13.9852 21.6646C13.4904 21.6646 13.0892 22.0229 13.0891 22.4646C13.0891 22.9064 13.4903 23.2646 13.9852 23.2646H23.393C23.8878 23.2646 24.2891 22.9064 24.2891 22.4646C24.2889 22.0229 23.8877 21.6646 23.393 21.6646H13.9852ZM13.857 17.3419C13.433 17.342 13.0892 17.7003 13.0891 18.1419C13.0891 18.5837 13.4329 18.9419 13.857 18.9419H21.9211C22.3452 18.9419 22.6891 18.5838 22.6891 18.1419C22.6889 17.7002 22.3452 17.3419 21.9211 17.3419H13.857ZM13.7289 13.0193C13.3756 13.0195 13.0892 13.3777 13.0891 13.8193C13.0891 14.261 13.3756 14.6191 13.7289 14.6193H20.4492C20.8027 14.6192 21.0891 14.2611 21.0891 13.8193C21.0889 13.3776 20.8026 13.0193 20.4492 13.0193H13.7289Z" fill="url(#paint2_linear_4292_5087)"/>
</g>
</g>
</g>
<defs>
<linearGradient id="paint0_linear_4292_5087" x1="39.5922" y1="35.748" x2="2.34884" y2="5.23539" gradientUnits="userSpaceOnUse">
<stop stop-color="#2CCE6E"/>
<stop offset="1" stop-color="#6FF9AB"/>
</linearGradient>
<linearGradient id="paint1_linear_4292_5087" x1="30.5911" y1="32.6527" x2="12.9207" y2="11.4482" gradientUnits="userSpaceOnUse">
<stop stop-color="#CDFFE3"/>
<stop offset="1" stop-color="white"/>
</linearGradient>
<linearGradient id="paint2_linear_4292_5087" x1="30.5911" y1="32.6527" x2="12.9207" y2="11.4482" gradientUnits="userSpaceOnUse">
<stop stop-color="#CDFFE3"/>
<stop offset="1" stop-color="white"/>
</linearGradient>
</defs>
</svg>
