<svg width="44" height="44" viewBox="0 0 44 44" fill="none" xmlns="http://www.w3.org/2000/svg">
<g id="&#230;&#155;&#180;&#229;&#164;&#154;">
<rect width="44" height="44" rx="6" fill="url(#paint0_linear_4398_4115)"/>
<g id="Frame">
<path id="Vector" d="M19.3107 10.8403H11.2752C10.6096 10.8403 10.0698 11.3803 10.0698 12.0458V20.0806C10.0698 20.7462 10.6096 21.2862 11.2752 21.2862H19.3107C19.9755 21.2862 20.516 20.7462 20.516 20.0806V12.0458C20.516 11.3802 19.9755 10.8403 19.3107 10.8403ZM31.664 23.1939H23.6282C22.9626 23.1939 22.4231 23.7333 22.4231 24.3989V32.4342C22.4231 33.0998 22.9626 33.6393 23.6282 33.6393H31.6641C32.3291 33.6393 32.8691 33.0998 32.8691 32.4342V24.3989C32.8691 23.7333 32.3291 23.1939 31.664 23.1939ZM33.4813 13.9165L26.9872 10.4882C26.4499 10.2042 25.7838 10.4103 25.4993 10.9471L22.0705 17.4424C21.7871 17.9808 21.9929 18.6459 22.531 18.9309L29.0253 22.3587C29.5632 22.6426 30.2304 22.4365 30.5143 21.8992L33.9421 15.4049C34.2263 14.8666 34.0204 14.2004 33.4813 13.9165ZM19.3107 23.1939H11.2752C10.6096 23.1939 10.0698 23.7333 10.0698 24.3989V32.4342C10.0698 33.0998 10.6096 33.6393 11.2752 33.6393H19.3107C19.9755 33.6393 20.516 33.0998 20.516 32.4342V24.3989C20.516 23.7333 19.9755 23.1939 19.3107 23.1939Z" fill="url(#paint1_linear_4398_4115)"/>
</g>
</g>
<defs>
<linearGradient id="paint0_linear_4398_4115" x1="39.5922" y1="35.748" x2="2.34884" y2="5.23539" gradientUnits="userSpaceOnUse">
<stop stop-color="#011AF8"/>
<stop offset="1" stop-color="#6FA4FF"/>
</linearGradient>
<linearGradient id="paint1_linear_4398_4115" x1="14.5457" y1="12.5417" x2="34.3527" y2="29.6282" gradientUnits="userSpaceOnUse">
<stop stop-color="white"/>
<stop offset="1" stop-color="#BFDCFF"/>
</linearGradient>
</defs>
</svg>
