<svg width="44" height="44" viewBox="0 0 44 44" fill="none" xmlns="http://www.w3.org/2000/svg">
<g id="&#232;&#135;&#170;&#229;&#138;&#168;&#231;&#148;&#159;&#230;&#136;&#144;&#232;&#181;&#132;&#230;&#150;&#153;">
<rect width="44" height="44" rx="6" fill="url(#paint0_linear_4292_5073)"/>
<g id="Frame">
<path id="Vector" d="M32.8345 18.4677H11.1656C10.4417 18.4677 9.92438 19.1656 10.0091 20.0156L11.7343 30.4078C11.7957 31.0226 12.3355 31.5157 12.9408 31.5157H31.0592C31.6645 31.5157 32.2044 31.0226 32.2657 30.4078L33.9909 20.0156C34.0756 19.1656 33.5584 18.4677 32.8345 18.4677ZM30.4912 14.7321H20.0722L18.3601 12.4841H13.556C12.832 12.4841 12.2452 13.0711 12.2452 13.795V15.6944H31.7549C31.6022 15.1396 31.0945 14.7321 30.4912 14.7321ZM32.9427 17.8613L33.0055 17.2907H10.9945L11.0573 17.8613H32.9427ZM32.485 16.798L32.5669 16.206H11.4331L11.515 16.798H32.485Z" fill="url(#paint1_linear_4292_5073)"/>
</g>
</g>
<defs>
<linearGradient id="paint0_linear_4292_5073" x1="39.5922" y1="35.748" x2="2.34884" y2="5.23539" gradientUnits="userSpaceOnUse">
<stop stop-color="#018AF8"/>
<stop offset="1" stop-color="#43C4FF"/>
</linearGradient>
<linearGradient id="paint1_linear_4292_5073" x1="14.4758" y1="14.2673" x2="30.8227" y2="31.5157" gradientUnits="userSpaceOnUse">
<stop stop-color="white"/>
<stop offset="1" stop-color="#BFDCFF"/>
</linearGradient>
</defs>
</svg>
