<svg width="60" height="60" viewBox="0 0 60 60" fill="none" xmlns="http://www.w3.org/2000/svg">
<path d="M33.6447 40.6828L39.752 38.4335L40.0885 38.0744L36.2894 34.2938L35.9287 34.6528L33.6447 40.6828ZM37.5638 33.0257L41.3629 36.8064L50.8608 27.3547L47.0616 23.5741L37.5638 33.0257ZM53.4096 22.2821L52.1352 21.0139C51.4378 20.3199 50.3079 20.3199 49.5864 21.0139L48.2879 22.3059L52.0871 26.0866L53.3855 24.7946C54.1068 24.1244 54.1068 22.9761 53.4096 22.2821Z" fill="url(#paint0_linear_4292_4998)"/>
<path d="M25.6064 16.9871C26.0419 16.8332 26.3382 16.6939 26.4923 16.5659V22.0496H27.6485V15.4155C27.9309 14.8527 28.1609 14.1497 28.3415 13.3058H27.1854C26.955 14.7376 26.4016 15.7349 25.5281 16.2967V17.0254C25.6064 17.0004 25.6307 16.9871 25.6064 16.9871Z" fill="url(#paint1_linear_4292_4998)"/>
<path d="M30.6925 17.6391H27.9949V18.4443H29.2291C29.1245 19.4164 28.7272 20.2214 28.0343 20.8603V21.5891C29.3955 21.0013 30.1394 19.9532 30.2678 18.4442H30.6925V22.0496H31.8872V18.4442H32.3107C32.4397 19.927 33.1843 20.9754 34.547 21.5891V20.8602C33.8779 20.2214 33.4799 19.4164 33.3517 18.4442H34.5854V17.639H31.8872V16.796H32.6198C33.5432 16.8211 33.9939 16.3735 33.9681 15.4534V13.5739H28.6889V16.7961H30.6925V17.6391ZM29.8447 15.9902V14.3801H32.8114V15.3764C32.8384 15.8119 32.6581 16.0163 32.273 15.9902H29.8447Z" fill="url(#paint2_linear_4292_4998)"/>
<path d="M40.5455 39.582L30.8072 43.0755L34.4621 33.5284L47.8071 20.248C47.8793 20.1764 47.9754 20.1045 48.0474 20.0326V19.2192L35.1594 5.67578H14.4806C12.4126 5.67578 10.7295 7.35072 10.7295 9.40865V49.9429C10.7295 52.0007 12.4126 53.6758 14.4806 53.6758H44.2965C46.3642 53.6758 48.0476 52.0007 48.0476 49.9429V32.1164L40.5455 39.582ZM23.9376 10.6835L24.2221 10.8227C27.0702 12.2173 29.3635 11.075 29.7943 10.8315L30.0295 10.6993L30.2644 10.8315C30.6949 11.0749 32.9886 12.2161 35.8369 10.8217L36.121 10.6835L37.4543 11.8328L37.2904 12.1612C37.0874 12.5706 36.4222 13.9915 36.4222 15.0668C36.4222 15.3051 36.5073 15.7369 36.6059 16.2372L36.6085 16.2522C36.7789 17.1044 37.0106 18.2709 37.0106 19.4014C37.0106 21.6011 36.1229 23.0188 34.3722 23.6147C31.6199 24.5506 30.7145 25.4079 30.4186 25.8355L30.026 26.4042L29.634 25.8344C29.3407 25.4067 28.436 24.5506 25.6872 23.6147C23.9352 23.0188 23.0475 21.6011 23.0475 19.4014C23.0475 18.2768 23.2704 17.1564 23.4488 16.2522C23.5494 15.7457 23.6364 15.3093 23.6364 15.0668C23.6364 13.9894 22.9711 12.5705 22.7681 12.1623L22.6045 11.8328L23.9376 10.6835ZM16.1015 29.5005H24.2379C25.0039 29.5005 25.6457 30.1391 25.6457 30.9014C25.6457 31.6842 25.0039 32.3024 24.2379 32.3024H16.1015C15.3355 32.3024 14.6937 31.6637 14.6937 30.9014C14.6937 30.1391 15.3355 29.5005 16.1015 29.5005ZM16.1015 34.3833H24.2379C25.0039 34.3833 25.6457 35.022 25.6457 35.7842C25.6457 36.5671 25.0039 37.1852 24.2379 37.1852H16.1015C15.3355 37.1852 14.6937 36.5464 14.6937 35.7842C14.6937 35.022 15.3355 34.3833 16.1015 34.3833ZM16.1015 38.9363H24.2379C25.0039 38.9363 25.6457 39.5751 25.6457 40.3373C25.6457 41.1204 25.0039 41.7384 24.2379 41.7384H16.1015C15.3355 41.7384 14.6937 41.0996 14.6937 40.3373C14.6937 39.5751 15.3355 38.9363 16.1015 38.9363ZM37.2188 47.9808H16.0807C15.3146 47.9808 14.6729 47.3423 14.6729 46.5799C14.6729 45.8177 15.3146 45.1789 16.0807 45.1789H37.2188C37.9847 45.1789 38.6265 45.8177 38.6265 46.5799C38.6265 47.3626 38.0053 47.9808 37.2188 47.9808Z" fill="url(#paint3_linear_4292_4998)"/>
<defs>
<linearGradient id="paint0_linear_4292_4998" x1="24.4815" y1="20.7497" x2="48.996" y2="57.8022" gradientUnits="userSpaceOnUse">
<stop stop-color="white"/>
<stop offset="1" stop-color="#FFD5D5"/>
</linearGradient>
<linearGradient id="paint1_linear_4292_4998" x1="24.4815" y1="20.7497" x2="48.996" y2="57.8022" gradientUnits="userSpaceOnUse">
<stop stop-color="white"/>
<stop offset="1" stop-color="#FFD5D5"/>
</linearGradient>
<linearGradient id="paint2_linear_4292_4998" x1="24.4815" y1="20.7497" x2="48.996" y2="57.8022" gradientUnits="userSpaceOnUse">
<stop stop-color="white"/>
<stop offset="1" stop-color="#FFD5D5"/>
</linearGradient>
<linearGradient id="paint3_linear_4292_4998" x1="24.4815" y1="20.7497" x2="48.996" y2="57.8022" gradientUnits="userSpaceOnUse">
<stop stop-color="white"/>
<stop offset="1" stop-color="#FFD5D5"/>
</linearGradient>
</defs>
</svg>
