<svg width="44" height="44" viewBox="0 0 44 44" fill="none" xmlns="http://www.w3.org/2000/svg">
<g id="&#229;&#136;&#134;&#230;&#148;&#175;&#230;&#156;&#186;&#230;&#158;&#132;">
<rect width="44" height="44" rx="6" fill="url(#paint0_linear_4398_4110)"/>
<g id="Frame">
<path id="Vector" d="M14.0474 22.3497H21.0418V26.8472H22.9395V22.3497H30.0553V26.9053H32.0058V20.4573H22.9659V17.6542H21.0418V20.4546H12.1232V26.9027H14.0474V22.3497ZM15.3987 28.5892H10.5423C10.2414 28.5892 9.99854 28.8321 9.99854 29.1303V33.4589C9.99854 33.7572 10.2414 34 10.5423 34H15.3987C15.697 34 15.9424 33.7572 15.9424 33.4589V29.1303C15.9424 28.8321 15.697 28.5892 15.3987 28.5892ZM24.4466 28.5892H19.5901C19.2892 28.5892 19.0464 28.8321 19.0464 29.1303V33.4589C19.0464 33.7572 19.2892 34 19.5901 34H24.4466C24.7475 34 24.9903 33.7572 24.9903 33.4589V29.1303C24.9903 28.8321 24.7475 28.5892 24.4466 28.5892ZM33.4575 28.5892H28.601C28.3001 28.5892 28.0573 28.8321 28.0573 29.1303V33.4589C28.0573 33.7572 28.3001 34 28.601 34H33.4575C33.7557 34 34.0012 33.7572 34.0012 33.4589V29.1303C33.9985 28.8321 33.7557 28.5892 33.4575 28.5892ZM15.763 16.8281H28.2684C28.6274 16.8281 28.9203 16.5378 28.9203 16.1788V10.6493C28.9203 10.2903 28.6274 10 28.2684 10H15.763C15.404 10 15.111 10.2903 15.111 10.6493V16.1762C15.111 16.5378 15.404 16.8281 15.763 16.8281Z" fill="url(#paint1_linear_4398_4110)"/>
</g>
</g>
<defs>
<linearGradient id="paint0_linear_4398_4110" x1="39.5922" y1="35.748" x2="2.34884" y2="5.23539" gradientUnits="userSpaceOnUse">
<stop stop-color="#E62D2D"/>
<stop offset="1" stop-color="#FF8686"/>
</linearGradient>
<linearGradient id="paint1_linear_4398_4110" x1="17.6394" y1="17.537" x2="29.3476" y2="37.2018" gradientUnits="userSpaceOnUse">
<stop stop-color="white"/>
<stop offset="1" stop-color="#FFD5D5"/>
</linearGradient>
</defs>
</svg>
