<svg width="44" height="44" viewBox="0 0 44 44" fill="none" xmlns="http://www.w3.org/2000/svg">
<path d="M39.3705 16.3614L32.2485 7.48951C31.5363 6.58197 30.3724 6 29.2044 6H14.8261C13.6622 6 12.5593 6.51685 11.782 7.48951L4.66004 16.3614C3.43099 17.8509 3.55715 20.0527 4.85538 21.4811L19.2987 36.7669L19.4941 36.9622C20.2063 37.6093 21.1789 38 22.1475 38H22.2777C23.3155 37.9349 24.2841 37.5483 24.9963 36.771L39.1141 21.5503C40.4733 20.0527 40.5385 17.8509 39.3705 16.3614ZM30.8241 20.7038L24.0888 28.0211C23.051 29.0589 21.4353 29.124 20.3975 28.1513L20.2673 28.0211L13.2715 20.6387C12.8198 20.1218 12.8198 19.2794 13.3366 18.8236C13.9186 18.3068 14.6959 18.3719 15.2128 18.8887L21.7853 25.8316C21.9807 26.0351 22.3022 26.0351 22.4975 25.8316L28.8788 19.023C29.3956 18.5062 30.1729 18.4411 30.7549 18.8928C31.2758 19.3405 31.2758 20.1829 30.8241 20.7038Z" fill="url(#paint0_linear_4292_5023)"/>
<defs>
<linearGradient id="paint0_linear_4292_5023" x1="6.937" y1="8.05067" x2="26.1904" y2="44.4606" gradientUnits="userSpaceOnUse">
<stop stop-color="white"/>
<stop offset="1" stop-color="#FFDDB8"/>
</linearGradient>
</defs>
</svg>
