<svg width="44" height="44" viewBox="0 0 44 44" fill="none" xmlns="http://www.w3.org/2000/svg">
<g id="&#228;&#191;&#157;&#229;&#135;&#189;&#230;&#159;&#165;&#233;&#170;&#140;">
<rect width="44" height="44" rx="6" fill="url(#paint0_linear_4292_5078)"/>
<g id="Doc-search (&#230;&#150;&#135;&#230;&#161;&#163;&#230;&#144;&#156;&#231;&#180;&#162;)">
<path id="Subtract" d="M30.2417 9.98877C31.1572 9.98903 31.9194 10.7179 31.9194 11.6401V32.3608C31.9192 33.2829 31.1571 34.011 30.2417 34.0112H13.7593C12.8437 34.0112 12.0818 33.2831 12.0815 32.3608V11.6401C12.0816 10.7177 12.8436 9.98877 13.7593 9.98877H30.2417ZM17.8794 28.1392C17.4461 28.1393 17.0954 28.4831 17.0952 28.9067C17.0952 29.3305 17.446 29.6742 17.8794 29.6743H22.0005C22.4339 29.6742 22.7856 29.3305 22.7856 28.9067C22.7855 28.4831 22.4338 28.1392 22.0005 28.1392H17.8794ZM17.8794 24.686C17.446 24.6862 17.0953 25.0299 17.0952 25.4536C17.0952 25.8774 17.446 26.2211 17.8794 26.2212H26.1206C26.5541 26.2212 26.9058 25.8775 26.9058 25.4536C26.9057 25.0298 26.5541 24.686 26.1206 24.686H17.8794ZM21.4116 13.7505C19.3526 13.7505 17.6831 15.3828 17.6831 17.396C17.6834 19.409 19.3527 21.0405 21.4116 21.0405C22.1566 21.0405 22.8507 20.8247 23.4331 20.4565L24.9771 21.9673C25.2836 22.267 25.7809 22.267 26.0874 21.9673C26.3937 21.6677 26.3935 21.182 26.0874 20.8823L24.5425 19.3716C24.9189 18.8023 25.1391 18.1242 25.1392 17.396C25.1392 15.3829 23.4706 13.7506 21.4116 13.7505ZM21.4116 15.2847C22.6036 15.2848 23.5698 16.2305 23.5698 17.396C23.5697 17.9788 23.3284 18.5046 22.937 18.8872C22.5456 19.2699 22.0078 19.5063 21.4116 19.5063C20.2197 19.5063 19.2527 18.5613 19.2524 17.396C19.2524 16.2305 20.2195 15.2847 21.4116 15.2847Z" fill="url(#paint1_linear_4292_5078)"/>
</g>
</g>
<defs>
<linearGradient id="paint0_linear_4292_5078" x1="39.5922" y1="35.748" x2="2.34884" y2="5.23539" gradientUnits="userSpaceOnUse">
<stop stop-color="#FF8B12"/>
<stop offset="1" stop-color="#FFC368"/>
</linearGradient>
<linearGradient id="paint1_linear_4292_5078" x1="18.3966" y1="17.5328" x2="31.0446" y2="35.0736" gradientUnits="userSpaceOnUse">
<stop stop-color="white"/>
<stop offset="1" stop-color="#FFDDB8"/>
</linearGradient>
</defs>
</svg>
