<svg width="44" height="44" viewBox="0 0 44 44" fill="none" xmlns="http://www.w3.org/2000/svg">
<path d="M33.9463 4C35.8782 4.00015 37.4883 5.54561 37.4883 7.47754V36.5225C37.4881 38.4543 35.9425 39.9998 34.0107 40H9.98926C8.05732 40 6.51185 38.4544 6.51172 36.5225V7.47754C6.51172 5.54551 8.05723 4 9.98926 4H33.9463ZM14.6904 30.9834C13.9821 30.9834 13.4025 31.5632 13.4023 32.2715C13.4023 32.9799 13.982 33.5596 14.6904 33.5596H21.0654C21.7738 33.5596 22.3535 32.9799 22.3535 32.2715C22.3534 31.5632 21.7738 30.9834 21.0654 30.9834H14.6904ZM14.6904 25.8965C13.9822 25.8965 13.4026 26.4754 13.4023 27.1836C13.4023 27.892 13.982 28.4717 14.6904 28.4717H27.4414C28.1498 28.4717 28.7295 27.892 28.7295 27.1836C28.7292 26.4754 28.1497 25.8965 27.4414 25.8965H14.6904ZM24.7363 10.0537C24.2856 10.0538 23.8346 10.2464 23.5127 10.5684L15.6562 18.4258C15.3343 18.7478 15.1406 19.1986 15.1406 19.6494V21.9678C15.1407 22.8693 15.9139 23.6416 16.8154 23.6416H19.1982C19.7134 23.6416 20.0999 23.4489 20.4219 23.127L28.2783 15.2051C28.9223 14.5611 28.9224 13.5308 28.3428 12.9512L25.96 10.5684C25.638 10.2465 25.187 10.0537 24.7363 10.0537ZM25.832 14.0469L18.876 21.002H17.7168V19.9072L24.7373 12.9521L25.832 14.0469Z" fill="url(#paint0_linear_4295_5156)"/>
<defs>
<linearGradient id="paint0_linear_4295_5156" x1="12.2878" y1="7.37309" x2="41.6549" y2="28.5169" gradientUnits="userSpaceOnUse">
<stop stop-color="white"/>
<stop offset="1" stop-color="#BFDCFF"/>
</linearGradient>
</defs>
</svg>
