<svg width="40" height="40" viewBox="0 0 40 40" fill="none" xmlns="http://www.w3.org/2000/svg">
<path fill-rule="evenodd" clip-rule="evenodd" d="M20.8378 13.7048C20.8378 14.4291 20.362 14.9176 19.6377 14.9176C18.9218 14.9176 18.2017 14.4333 18.2017 13.7048C18.2017 12.9763 18.9218 12.4962 19.6377 12.4962C20.362 12.4962 20.8378 12.9763 20.8378 13.7048ZM11.5062 13.7049C11.5062 12.9764 12.2305 12.4963 12.9464 12.4963C13.6623 12.4963 14.1424 12.9764 14.1424 13.7049C14.1424 14.4292 13.6623 14.9177 12.9464 14.9177C12.2305 14.9177 11.5062 14.4292 11.5062 13.7049Z" fill="#07C160"/>
<path fill-rule="evenodd" clip-rule="evenodd" d="M20.0007 1.14282C9.58674 1.14282 1.14355 9.58601 1.14355 20C1.14355 30.4139 9.58674 38.8571 20.0007 38.8571C30.4147 38.8571 38.8578 30.4139 38.8578 20C38.8578 9.58601 30.4189 1.14282 20.0007 1.14282ZM16.0539 24.8636C15.0306 24.8636 14.18 24.6848 13.2065 24.4802C13.0423 24.4457 12.8746 24.4104 12.7019 24.3752L9.35835 26.0764L10.3143 23.1582C7.91816 21.4611 6.4864 19.2798 6.4864 16.6142C6.4864 11.9988 10.7943 8.3689 16.0539 8.3689C20.7577 8.3689 24.8761 11.2703 25.7057 15.174C25.4025 15.1403 25.0951 15.1192 24.7835 15.1192C20.2397 15.1192 16.6519 18.5597 16.6519 22.7918C16.6519 23.4993 16.7614 24.1772 16.9467 24.8257C16.6519 24.851 16.3571 24.8636 16.0539 24.8636ZM30.8847 30.6838L30.1646 28.2583C32.0848 26.8012 33.5124 24.8641 33.5166 22.6786C33.5166 18.8002 29.6887 15.6419 25.3935 15.6419C20.8413 15.6419 17.2535 18.8002 17.2535 22.6786C17.2535 26.557 20.8413 29.7111 25.3935 29.7111C26.3452 29.7111 27.3011 29.471 28.2612 29.2268L30.8847 30.6838Z" fill="#07C160"/>
<path fill-rule="evenodd" clip-rule="evenodd" d="M21.7943 20.4967C21.7943 20.0124 22.2744 19.5239 22.7502 19.5239C23.4787 19.5239 23.9504 20.0124 23.9462 20.4967C23.9462 20.9852 23.4745 21.4652 22.7502 21.4652C22.2744 21.4652 21.7943 20.981 21.7943 20.4967ZM27.0663 20.4967C27.0663 20.0125 27.5421 19.524 28.0138 19.524C28.7338 19.524 29.2139 20.0125 29.2139 20.4967C29.2139 20.9852 28.7338 21.4653 28.0138 21.4653C27.5421 21.4653 27.0663 20.981 27.0663 20.4967Z" fill="#07C160"/>
</svg>
